<svg width="26" height="26" viewBox="0 0 26 26" fill="none" xmlns="http://www.w3.org/2000/svg">
<path fill-rule="evenodd" clip-rule="evenodd" d="M21.6414 18.5754L25.3429 22.2245C26.219 23.0882 26.219 24.4885 25.3429 25.3522C24.4668 26.2159 23.0463 26.2159 22.1702 25.3522L18.4687 21.7032C18.1766 21.4153 18.1766 20.9485 18.4687 20.6606L20.5838 18.5754C20.8759 18.2875 21.3493 18.2875 21.6414 18.5754ZM11.2173 0C17.4124 0 22.4346 4.95095 22.4346 11.0583C22.4346 17.1656 17.4124 22.1165 11.2173 22.1165C5.02215 22.1165 0 17.1656 0 11.0583C0 4.95095 5.02215 0 11.2173 0ZM11.2173 2.94887C6.67419 2.94887 2.99128 6.57957 2.99128 11.0583C2.99128 15.5369 6.67419 19.1676 11.2173 19.1676C15.7604 19.1676 19.4433 15.5369 19.4433 11.0583C19.4433 6.57957 15.7604 2.94887 11.2173 2.94887ZM13.939 4.18999C16.0762 5.01355 17.7234 6.77104 18.3824 8.94207C18.6192 9.7222 18.1697 10.5439 17.3783 10.7773C16.623 11.0002 15.8292 10.6065 15.5526 9.89174L15.5167 9.78748C15.122 8.48739 14.1312 7.43021 12.85 6.93649C12.0806 6.64003 11.7008 5.78487 12.0015 5.02645C12.3022 4.26802 13.1697 3.89353 13.939 4.18999Z" fill="#333333"/>
</svg>
